<svg xmlns="http://www.w3.org/2000/svg" width="1440" height="900"><path d="M757,476L692,615L748,649Z" fill="#2c3f3f" stroke="#2c3f3f" stroke-width="1.51"/><path d="M757,476L587,463L692,615Z" fill="#2e4545" stroke="#2e4545" stroke-width="1.51"/><path d="M748,649L957,635L757,476Z" fill="#2a3c3c" stroke="#2a3c3c" stroke-width="1.51"/><path d="M957,635L1004,477L757,476Z" fill="#2a3c3c" stroke="#2a3c3c" stroke-width="1.51"/><path d="M757,476L614,305L587,463Z" fill="#324c4c" stroke="#324c4c" stroke-width="1.51"/><path d="M748,649L929,843L957,635Z" fill="#263333" stroke="#263333" stroke-width="1.51"/><path d="M600,797L748,840L748,649Z" fill="#283737" stroke="#283737" stroke-width="1.51"/><path d="M600,797L748,649L692,615Z" fill="#2a3b3b" stroke="#2a3b3b" stroke-width="1.51"/><path d="M587,463L489,622L692,615Z" fill="#2f4646" stroke="#2f4646" stroke-width="1.51"/><path d="M489,622L600,797L692,615Z" fill="#2c4040" stroke="#2c4040" stroke-width="1.51"/><path d="M587,463L442,426L489,622Z" fill="#324d4d" stroke="#324d4d" stroke-width="1.51"/><path d="M859,213L614,305L757,476Z" fill="#334e4e" stroke="#334e4e" stroke-width="1.51"/><path d="M748,840L929,843L748,649Z" fill="#253232" stroke="#253232" stroke-width="1.51"/><path d="M957,635L1145,631L1004,477Z" fill="#273434" stroke="#273434" stroke-width="1.51"/><path d="M614,305L442,426L587,463Z" fill="#355252" stroke="#355252" stroke-width="1.51"/><path d="M665,944L832,911L748,840Z" fill="#232e2e" stroke="#232e2e" stroke-width="1.51"/><path d="M748,840L832,911L929,843Z" fill="#232c2c" stroke="#232c2c" stroke-width="1.51"/><path d="M1004,477L859,213L757,476Z" fill="#2f4646" stroke="#2f4646" stroke-width="1.51"/><path d="M1137,829L1145,631L957,635Z" fill="#232d2d" stroke="#232d2d" stroke-width="1.51"/><path d="M1004,477L1042,245L859,213Z" fill="#304848" stroke="#304848" stroke-width="1.51"/><path d="M600,797L665,944L748,840Z" fill="#263333" stroke="#263333" stroke-width="1.51"/><path d="M495,984L665,944L600,797Z" fill="#273434" stroke="#273434" stroke-width="1.51"/><path d="M489,622L393,769L600,797Z" fill="#2d4141" stroke="#2d4141" stroke-width="1.51"/><path d="M442,426L344,582L489,622Z" fill="#334e4e" stroke="#334e4e" stroke-width="1.51"/><path d="M344,582L393,769L489,622Z" fill="#314949" stroke="#314949" stroke-width="1.51"/><path d="M1209,458L1042,245L1004,477Z" fill="#2b3e3e" stroke="#2b3e3e" stroke-width="1.51"/><path d="M1145,631L1209,458L1004,477Z" fill="#273535" stroke="#273535" stroke-width="1.51"/><path d="M929,843L1137,829L957,635Z" fill="#222c2c" stroke="#222c2c" stroke-width="1.51"/><path d="M1145,631L1380,666L1209,458Z" fill="#232e2e" stroke="#232e2e" stroke-width="1.51"/><path d="M1157,971L1137,829L929,843Z" fill="#1e2424" stroke="#1e2424" stroke-width="1.51"/><path d="M859,213L784,102L614,305Z" fill="#375656" stroke="#375656" stroke-width="1.51"/><path d="M614,305L401,250L442,426Z" fill="#395a5a" stroke="#395a5a" stroke-width="1.51"/><path d="M1025,148L784,102L859,213Z" fill="#355353" stroke="#355353" stroke-width="1.51"/><path d="M503,54L401,250L614,305Z" fill="#3c6161" stroke="#3c6161" stroke-width="1.51"/><path d="M442,426L290,401L344,582Z" fill="#365656" stroke="#365656" stroke-width="1.51"/><path d="M1042,245L1025,148L859,213Z" fill="#344e4e" stroke="#344e4e" stroke-width="1.51"/><path d="M1149,233L1025,148L1042,245Z" fill="#314b4b" stroke="#314b4b" stroke-width="1.51"/><path d="M832,911L949,1020L929,843Z" fill="#212928" stroke="#212928" stroke-width="1.51"/><path d="M785,1075L949,1020L832,911Z" fill="#222a2a" stroke="#222a2a" stroke-width="1.51"/><path d="M393,769L495,984L600,797Z" fill="#2a3b3b" stroke="#2a3b3b" stroke-width="1.51"/><path d="M665,944L785,1075L832,911Z" fill="#232d2d" stroke="#232d2d" stroke-width="1.51"/><path d="M319,266L290,401L442,426Z" fill="#3a5d5d" stroke="#3a5d5d" stroke-width="1.51"/><path d="M155,686L300,854L393,769Z" fill="#304747" stroke="#304747" stroke-width="1.51"/><path d="M1209,458L1149,233L1042,245Z" fill="#2d4242" stroke="#2d4242" stroke-width="1.51"/><path d="M649,1107L785,1075L665,944Z" fill="#243030" stroke="#243030" stroke-width="1.51"/><path d="M784,102L657,48L614,305Z" fill="#395b5b" stroke="#395b5b" stroke-width="1.51"/><path d="M615,-62L657,48L812,-83Z" fill="#3b6060" stroke="#3b6060" stroke-width="1.51"/><path d="M401,250L319,266L442,426Z" fill="#3c5f5f" stroke="#3c5f5f" stroke-width="1.51"/><path d="M238,109L319,266L401,250Z" fill="#406868" stroke="#406868" stroke-width="1.51"/><path d="M1137,829L1271,730L1145,631Z" fill="#202727" stroke="#202727" stroke-width="1.51"/><path d="M1353,925L1271,730L1137,829Z" fill="#1d2121" stroke="#1d2121" stroke-width="1.51"/><path d="M155,686L393,769L344,582Z" fill="#324b4b" stroke="#324b4b" stroke-width="1.51"/><path d="M393,769L300,854L495,984Z" fill="#2c3e3e" stroke="#2c3e3e" stroke-width="1.51"/><path d="M428,1162L649,1107L495,984Z" fill="#283736" stroke="#283736" stroke-width="1.51"/><path d="M495,984L649,1107L665,944Z" fill="#263333" stroke="#263333" stroke-width="1.51"/><path d="M1098,1147L1157,971L949,1020Z" fill="#1e2323" stroke="#1e2323" stroke-width="1.51"/><path d="M949,1020L1157,971L929,843Z" fill="#1f2525" stroke="#1f2525" stroke-width="1.51"/><path d="M657,48L503,54L614,305Z" fill="#3c6060" stroke="#3c6060" stroke-width="1.51"/><path d="M1209,458L1265,266L1149,233Z" fill="#2c3f3f" stroke="#2c3f3f" stroke-width="1.51"/><path d="M1149,233L1213,60L1025,148Z" fill="#324b4b" stroke="#324b4b" stroke-width="1.51"/><path d="M1384,399L1265,266L1209,458Z" fill="#293939" stroke="#293939" stroke-width="1.51"/><path d="M300,854L265,927L495,984Z" fill="#2c3d3d" stroke="#2c3d3d" stroke-width="1.51"/><path d="M89,853L265,927L300,854Z" fill="#2e4242" stroke="#2e4242" stroke-width="1.51"/><path d="M107,470L155,686L344,582Z" fill="#365353" stroke="#365353" stroke-width="1.51"/><path d="M107,470L344,582L290,401Z" fill="#375858" stroke="#375858" stroke-width="1.51"/><path d="M1271,730L1380,666L1145,631Z" fill="#202828" stroke="#202828" stroke-width="1.51"/><path d="M1446,855L1380,666L1271,730Z" fill="#1d2121" stroke="#1d2121" stroke-width="1.51"/><path d="M657,48L615,-62L503,54Z" fill="#3e6565" stroke="#3e6565" stroke-width="1.51"/><path d="M812,-83L657,48L784,102Z" fill="#3a5d5d" stroke="#3a5d5d" stroke-width="1.51"/><path d="M812,-83L784,102L968,-90Z" fill="#395a5a" stroke="#395a5a" stroke-width="1.51"/><path d="M1380,666L1384,399L1209,458Z" fill="#242f2f" stroke="#242f2f" stroke-width="1.51"/><path d="M968,-90L784,102L1025,148Z" fill="#375656" stroke="#375656" stroke-width="1.51"/><path d="M69,284L107,470L290,401Z" fill="#3c6060" stroke="#3c6060" stroke-width="1.51"/><path d="M69,284L290,401L319,266Z" fill="#3d6464" stroke="#3d6464" stroke-width="1.51"/><path d="M785,1075L929,1207L949,1020Z" fill="#212929" stroke="#212929" stroke-width="1.51"/><path d="M649,1107L929,1207L785,1075Z" fill="#232c2c" stroke="#232c2c" stroke-width="1.51"/><path d="M929,1207L1098,1147L949,1020Z" fill="#1f2626" stroke="#1f2626" stroke-width="1.51"/><path d="M1157,971L1353,925L1137,829Z" fill="#1c1e1e" stroke="#1c1e1e" stroke-width="1.51"/><path d="M1265,266L1213,60L1149,233Z" fill="#304747" stroke="#304747" stroke-width="1.51"/><path d="M1351,171L1213,60L1265,266Z" fill="#2f4545" stroke="#2f4545" stroke-width="1.51"/><path d="M1129,-39L968,-90L1025,148Z" fill="#355353" stroke="#355353" stroke-width="1.51"/><path d="M265,927L428,1162L495,984Z" fill="#2b3c3c" stroke="#2b3c3c" stroke-width="1.51"/><path d="M649,1107L428,1162L929,1207Z" fill="#253130" stroke="#253130" stroke-width="1.51"/><path d="M1453,1036L1353,925L1389,1181Z" fill="#191919" stroke="#191919" stroke-width="1.51"/><path d="M503,54L238,109L401,250Z" fill="#406969" stroke="#406969" stroke-width="1.51"/><path d="M294,-103L238,109L503,54Z" fill="#426f6f" stroke="#426f6f" stroke-width="1.51"/><path d="M694,-215L615,-62L812,-83Z" fill="#3c6060" stroke="#3c6060" stroke-width="1.51"/><path d="M476,-238L475,-70L615,-62Z" fill="#406868" stroke="#406868" stroke-width="1.51"/><path d="M615,-62L475,-70L503,54Z" fill="#3f6868" stroke="#3f6868" stroke-width="1.51"/><path d="M1213,60L1129,-39L1025,148Z" fill="#344e4e" stroke="#344e4e" stroke-width="1.51"/><path d="M1213,60L1264,-67L1129,-39Z" fill="#334e4e" stroke="#334e4e" stroke-width="1.51"/><path d="M1464,285L1351,171L1265,266Z" fill="#2d3f3f" stroke="#2d3f3f" stroke-width="1.51"/><path d="M155,686L89,853L300,854Z" fill="#304747" stroke="#304747" stroke-width="1.51"/><path d="M265,927L267,1194L428,1162Z" fill="#2c3e3e" stroke="#2c3e3e" stroke-width="1.51"/><path d="M-59,795L89,853L155,686Z" fill="#324b4b" stroke="#324b4b" stroke-width="1.51"/><path d="M1353,925L1446,855L1271,730Z" fill="#1b1d1d" stroke="#1b1d1d" stroke-width="1.51"/><path d="M1532,417L1464,285L1384,399Z" fill="#273434" stroke="#273434" stroke-width="1.51"/><path d="M1453,1036L1446,855L1353,925Z" fill="#181818" stroke="#181818" stroke-width="1.51"/><path d="M-109,662L-59,795L155,686Z" fill="#345050" stroke="#345050" stroke-width="1.51"/><path d="M238,109L69,284L319,266Z" fill="#416b6b" stroke="#416b6b" stroke-width="1.51"/><path d="M1384,399L1464,285L1265,266Z" fill="#293a3a" stroke="#293a3a" stroke-width="1.51"/><path d="M1532,417L1384,399L1380,666Z" fill="#232c2c" stroke="#232c2c" stroke-width="1.51"/><path d="M1162,-255L937,-177L968,-90Z" fill="#365454" stroke="#365454" stroke-width="1.51"/><path d="M968,-90L937,-177L812,-83Z" fill="#385959" stroke="#385959" stroke-width="1.51"/><path d="M831,-277L694,-215L812,-83Z" fill="#3a5d5d" stroke="#3a5d5d" stroke-width="1.51"/><path d="M1564,665L1532,417L1380,666Z" fill="#202828" stroke="#202828" stroke-width="1.51"/><path d="M89,853L111,1028L265,927Z" fill="#2e4242" stroke="#2e4242" stroke-width="1.51"/><path d="M111,1028L267,1194L265,927Z" fill="#2e4141" stroke="#2e4141" stroke-width="1.51"/><path d="M428,1162L267,1194L929,1207Z" fill="#283636" stroke="#283636" stroke-width="1.51"/><path d="M1503,81L1264,-67L1351,171Z" fill="#304646" stroke="#304646" stroke-width="1.51"/><path d="M1351,171L1264,-67L1213,60Z" fill="#314a49" stroke="#314a49" stroke-width="1.51"/><path d="M1129,-39L1162,-255L968,-90Z" fill="#355252" stroke="#355252" stroke-width="1.51"/><path d="M69,284L-5,310L107,470Z" fill="#3e6565" stroke="#3e6565" stroke-width="1.51"/><path d="M89,853L-38,988L111,1028Z" fill="#304444" stroke="#304444" stroke-width="1.51"/><path d="M-106,101L-5,310L69,284Z" fill="#436f6f" stroke="#436f6f" stroke-width="1.51"/><path d="M1446,855L1564,665L1380,666Z" fill="#1c2020" stroke="#1c2020" stroke-width="1.51"/><path d="M238,109L79,80L69,284Z" fill="#436f6f" stroke="#436f6f" stroke-width="1.51"/><path d="M475,-70L294,-103L503,54Z" fill="#426d6d" stroke="#426d6d" stroke-width="1.51"/><path d="M476,-238L294,-103L475,-70Z" fill="#426d6d" stroke="#426d6d" stroke-width="1.51"/><path d="M63,-9L79,80L238,109Z" fill="#447373" stroke="#447373" stroke-width="1.51"/><path d="M1446,855L1670,852L1564,665Z" fill="#1b1d1d" stroke="#1b1d1d" stroke-width="1.51"/><path d="M1389,1181L1353,925L1157,971Z" fill="#1a1c1c" stroke="#1a1c1c" stroke-width="1.51"/><path d="M1389,1181L1157,971L1098,1147Z" fill="#1c1f1f" stroke="#1c1f1f" stroke-width="1.51"/><path d="M694,-215L476,-238L615,-62Z" fill="#3e6565" stroke="#3e6565" stroke-width="1.51"/><path d="M937,-177L831,-277L812,-83Z" fill="#385a5a" stroke="#385a5a" stroke-width="1.51"/><path d="M1162,-255L831,-277L937,-177Z" fill="#375656" stroke="#375656" stroke-width="1.51"/><path d="M831,-277L476,-238L694,-215Z" fill="#3c6262" stroke="#3c6262" stroke-width="1.51"/><path d="M-109,662L155,686L107,470Z" fill="#375454" stroke="#375454" stroke-width="1.51"/><path d="M-5,310L-86,437L107,470Z" fill="#3c6363" stroke="#3c6363" stroke-width="1.51"/><path d="M-210,393L-86,437L-216,285Z" fill="#3e6565" stroke="#3e6565" stroke-width="1.51"/><path d="M1564,665L1632,573L1532,417Z" fill="#212929" stroke="#212929" stroke-width="1.51"/><path d="M1620,97L1503,81L1464,285Z" fill="#2d4040" stroke="#2d4040" stroke-width="1.51"/><path d="M1464,285L1503,81L1351,171Z" fill="#2d3f3f" stroke="#2d3f3f" stroke-width="1.51"/><path d="M1670,852L1632,573L1564,665Z" fill="#1d2222" stroke="#1d2222" stroke-width="1.51"/><path d="M-86,437L-109,662L107,470Z" fill="#395b5b" stroke="#395b5b" stroke-width="1.51"/><path d="M929,1207L1389,1181L1098,1147Z" fill="#1d2121" stroke="#1d2121" stroke-width="1.51"/><path d="M1650,401L1464,285L1532,417Z" fill="#273434" stroke="#273434" stroke-width="1.51"/><path d="M111,1028L54,1119L267,1194Z" fill="#2f4242" stroke="#2f4242" stroke-width="1.51"/><path d="M-38,988L54,1119L111,1028Z" fill="#304545" stroke="#304545" stroke-width="1.51"/><path d="M-38,988L89,853L-59,795Z" fill="#314747" stroke="#314747" stroke-width="1.51"/><path d="M1632,573L1650,401L1532,417Z" fill="#232e2e" stroke="#232e2e" stroke-width="1.51"/><path d="M79,80L-106,101L69,284Z" fill="#447272" stroke="#447272" stroke-width="1.51"/><path d="M294,-103L63,-9L238,109Z" fill="#457474" stroke="#457474" stroke-width="1.51"/><path d="M-33,-180L63,-9L61,-310Z" fill="#467878" stroke="#467878" stroke-width="1.51"/><path d="M-172,931L-38,988L-59,795Z" fill="#304646" stroke="#304646" stroke-width="1.51"/><path d="M1264,-67L1162,-255L1129,-39Z" fill="#344e4e" stroke="#344e4e" stroke-width="1.51"/><path d="M1327,-294L1162,-255L1264,-67Z" fill="#334c4c" stroke="#334c4c" stroke-width="1.51"/><path d="M1389,1181L1459,1179L1453,1036Z" fill="#181818" stroke="#181818" stroke-width="1.51"/><path d="M1453,1036L1670,852L1446,855Z" fill="#181818" stroke="#181818" stroke-width="1.51"/><path d="M929,1207L1459,1179L1389,1181Z" fill="#1b1d1d" stroke="#1b1d1d" stroke-width="1.51"/><path d="M1735,943L1670,852L1453,1036Z" fill="#181818" stroke="#181818" stroke-width="1.51"/><path d="M1898,333L1712,258L1650,401Z" fill="#283736" stroke="#283736" stroke-width="1.51"/><path d="M831,-277L277,-274L476,-238Z" fill="#406868" stroke="#406868" stroke-width="1.51"/><path d="M476,-238L277,-274L294,-103Z" fill="#437070" stroke="#437070" stroke-width="1.51"/><path d="M1503,81L1484,-101L1264,-67Z" fill="#314646" stroke="#314646" stroke-width="1.51"/><path d="M1712,258L1620,97L1464,285Z" fill="#2c3e3e" stroke="#2c3e3e" stroke-width="1.51"/><path d="M1620,97L1484,-101L1503,81Z" fill="#304545" stroke="#304545" stroke-width="1.51"/><path d="M-86,437L-210,393L-109,662Z" fill="#3a5d5d" stroke="#3a5d5d" stroke-width="1.51"/><path d="M-54,-23L-106,101L79,80Z" fill="#467777" stroke="#467777" stroke-width="1.51"/><path d="M-54,-23L79,80L63,-9Z" fill="#467878" stroke="#467878" stroke-width="1.51"/><path d="M-216,285L-86,437L-5,310Z" fill="#3f6767" stroke="#3f6767" stroke-width="1.51"/><path d="M-285,863L-172,931L-59,795Z" fill="#314747" stroke="#314747" stroke-width="1.51"/><path d="M1910,419L1650,401L1632,573Z" fill="#232e2e" stroke="#232e2e" stroke-width="1.51"/><path d="M1650,401L1712,258L1464,285Z" fill="#293737" stroke="#293737" stroke-width="1.51"/><path d="M-285,863L-59,795L-109,662Z" fill="#334d4c" stroke="#334d4c" stroke-width="1.51"/><path d="M-38,988L-113,1111L54,1119Z" fill="#304646" stroke="#304646" stroke-width="1.51"/><path d="M-33,-180L-54,-23L63,-9Z" fill="#477979" stroke="#477979" stroke-width="1.51"/><path d="M-232,123L-216,285L-106,101Z" fill="#447272" stroke="#447272" stroke-width="1.51"/><path d="M-106,101L-216,285L-5,310Z" fill="#426f6f" stroke="#426f6f" stroke-width="1.51"/><path d="M1162,-255L1327,-294L831,-277Z" fill="#355151" stroke="#355151" stroke-width="1.51"/><path d="M831,-277L61,-310L277,-274Z" fill="#436e6e" stroke="#436e6e" stroke-width="1.51"/><path d="M1484,-101L1327,-294L1264,-67Z" fill="#324948" stroke="#324948" stroke-width="1.51"/><path d="M54,1119L-291,1208L267,1194Z" fill="#304545" stroke="#304545" stroke-width="1.51"/><path d="M-172,931L-113,1111L-38,988Z" fill="#304646" stroke="#304646" stroke-width="1.51"/><path d="M1670,852L1859,654L1632,573Z" fill="#1d2222" stroke="#1d2222" stroke-width="1.51"/><path d="M1696,1148L1735,943L1453,1036Z" fill="#181818" stroke="#181818" stroke-width="1.51"/><path d="M-172,931L-291,1208L-113,1111Z" fill="#304646" stroke="#304646" stroke-width="1.51"/><path d="M-210,393L-290,671L-109,662Z" fill="#375858" stroke="#375858" stroke-width="1.51"/><path d="M-216,285L-290,671L-210,393Z" fill="#3b5f5f" stroke="#3b5f5f" stroke-width="1.51"/><path d="M-216,285L-232,123L-290,671Z" fill="#3e6666" stroke="#3e6666" stroke-width="1.51"/><path d="M-252,-107L-232,123L-106,101Z" fill="#477777" stroke="#477777" stroke-width="1.51"/><path d="M-54,-23L-252,-107L-106,101Z" fill="#477979" stroke="#477979" stroke-width="1.51"/><path d="M61,-310L63,-9L294,-103Z" fill="#467575" stroke="#467575" stroke-width="1.51"/><path d="M-290,671L-285,863L-109,662Z" fill="#344f4f" stroke="#344f4f" stroke-width="1.51"/><path d="M1845,855L1859,654L1670,852Z" fill="#1b1d1d" stroke="#1b1d1d" stroke-width="1.51"/><path d="M1735,943L1845,855L1670,852Z" fill="#191919" stroke="#191919" stroke-width="1.51"/><path d="M1459,1179L1696,1148L1453,1036Z" fill="#181818" stroke="#181818" stroke-width="1.51"/><path d="M277,-274L61,-310L294,-103Z" fill="#447373" stroke="#447373" stroke-width="1.51"/><path d="M1327,-294L61,-310L831,-277Z" fill="#3a5f5f" stroke="#3a5f5f" stroke-width="1.51"/><path d="M1484,-101L1501,-307L1327,-294Z" fill="#304646" stroke="#304646" stroke-width="1.51"/><path d="M1620,97L1711,-33L1484,-101Z" fill="#304646" stroke="#304646" stroke-width="1.51"/><path d="M1806,-12L1711,-33L1620,97Z" fill="#304545" stroke="#304545" stroke-width="1.51"/><path d="M1860,123L1620,97L1712,258Z" fill="#2d4040" stroke="#2d4040" stroke-width="1.51"/><path d="M1872,968L1845,855L1735,943Z" fill="#181818" stroke="#181818" stroke-width="1.51"/><path d="M1622,-200L1501,-307L1484,-101Z" fill="#304646" stroke="#304646" stroke-width="1.51"/><path d="M1327,-294L1501,-307L61,-310Z" fill="#375656" stroke="#375656" stroke-width="1.51"/><path d="M1711,-33L1622,-200L1484,-101Z" fill="#304646" stroke="#304646" stroke-width="1.51"/><path d="M1859,654L1910,419L1632,573Z" fill="#212929" stroke="#212929" stroke-width="1.51"/><path d="M1872,968L1910,419L1859,654Z" fill="#1e2222" stroke="#1e2222" stroke-width="1.51"/><path d="M1910,419L1898,333L1650,401Z" fill="#263333" stroke="#263333" stroke-width="1.51"/><path d="M1845,855L1872,968L1859,654Z" fill="#1a1b1b" stroke="#1a1b1b" stroke-width="1.51"/><path d="M1786,1156L1872,968L1735,943Z" fill="#181818" stroke="#181818" stroke-width="1.51"/><path d="M1711,-33L1850,-200L1622,-200Z" fill="#304646" stroke="#304646" stroke-width="1.51"/><path d="M1898,333L1860,123L1712,258Z" fill="#2b3d3c" stroke="#2b3d3c" stroke-width="1.51"/><path d="M1696,1148L1786,1156L1735,943Z" fill="#181818" stroke="#181818" stroke-width="1.51"/><path d="M1459,1179L1786,1156L1696,1148Z" fill="#181818" stroke="#181818" stroke-width="1.51"/><path d="M1860,123L1806,-12L1620,97Z" fill="#2f4343" stroke="#2f4343" stroke-width="1.51"/><path d="M-223,-244L-252,-107L-33,-180Z" fill="#477979" stroke="#477979" stroke-width="1.51"/><path d="M-33,-180L-252,-107L-54,-23Z" fill="#477979" stroke="#477979" stroke-width="1.51"/><path d="M-232,123L-252,-107L-290,671Z" fill="#436f6f" stroke="#436f6f" stroke-width="1.51"/><path d="M-113,1111L-291,1208L54,1119Z" fill="#304646" stroke="#304646" stroke-width="1.51"/><path d="M267,1194L-291,1208L929,1207Z" fill="#2d3f3f" stroke="#2d3f3f" stroke-width="1.51"/><path d="M-285,863L-291,1208L-172,931Z" fill="#304646" stroke="#304646" stroke-width="1.51"/><path d="M-290,671L-291,1208L-285,863Z" fill="#304646" stroke="#304646" stroke-width="1.51"/><path d="M61,-310L-223,-244L-33,-180Z" fill="#477979" stroke="#477979" stroke-width="1.51"/><path d="M1860,123L1850,-200L1806,-12Z" fill="#304646" stroke="#304646" stroke-width="1.51"/><path d="M1806,-12L1850,-200L1711,-33Z" fill="#304646" stroke="#304646" stroke-width="1.51"/><path d="M1622,-200L1850,-200L1501,-307Z" fill="#304646" stroke="#304646" stroke-width="1.51"/><path d="M1898,333L1850,-200L1860,123Z" fill="#2f4242" stroke="#2f4242" stroke-width="1.51"/><path d="M1910,419L1850,-200L1898,333Z" fill="#2d3f3f" stroke="#2d3f3f" stroke-width="1.51"/></svg>